<?xml version="1.0" standalone="no"?>
<!DOCTYPE svg PUBLIC "-//W3C//DTD SVG 20010904//EN"
 "http://www.w3.org/TR/2001/REC-SVG-20010904/DTD/svg10.dtd">
<svg version="1.0" xmlns="http://www.w3.org/2000/svg"
 width="300.000000pt" height="231.000000pt" viewBox="0 0 300.000000 231.000000"
 preserveAspectRatio="xMidYMid meet">
<metadata>
Created by potrace 1.10, written by Peter Selinger 2001-2011
</metadata>
<g transform="translate(0.000000,231.000000) scale(0.100000,-0.100000)"
fill="#000000" stroke="none">
<path d="M1507 1901 c-153 -92 -137 -39 -137 -440 l0 -346 125 0 125 0 0 422
c0 233 -3 423 -7 423 -5 -1 -52 -27 -106 -59z m90 -371 l0 -391 -100 3 -100 3
1 130 c1 72 1 221 2 332 l0 201 88 55 c48 30 92 56 98 56 7 1 10 -121 11 -389z"/>
<path d="M1070 1661 l0 -291 125 0 125 0 0 204 c0 240 5 227 -122 301 -46 26
-93 55 -105 63 l-23 14 0 -291z m60 224 c3 0 31 -17 63 -38 31 -20 61 -37 65
-37 4 0 13 -10 21 -22 14 -22 24 -277 14 -350 l-6 -38 -92 0 -93 0 0 63 c0 34
-1 67 -2 72 -1 6 -2 90 -1 188 1 140 4 176 14 170 6 -4 14 -8 17 -8z"/>
<path d="M1672 1365 l3 -247 124 0 124 0 -2 157 c-1 89 -7 167 -13 181 -7 15
-46 44 -102 76 -50 28 -101 58 -114 66 l-22 15 2 -248z m143 132 c11 -7 32
-21 48 -31 l27 -18 0 -153 0 -152 -74 -2 c-41 -1 -85 1 -98 4 l-23 6 2 192 c2
106 3 197 3 204 0 10 55 -14 115 -50z"/>
<path d="M200 1000 c0 -4 6 -10 13 -13 7 -3 28 -49 46 -103 19 -55 38 -103 42
-109 15 -16 27 6 63 110 34 100 34 100 68 100 l33 0 3 -93 c3 -87 1 -94 -18
-99 -11 -3 -20 -9 -20 -15 0 -5 43 -7 97 -6 85 3 98 5 101 21 2 10 1 26 -3 35
-5 14 -9 13 -21 -10 -12 -23 -21 -28 -54 -28 l-40 0 0 51 0 51 38 -4 c20 -1
37 2 37 7 0 6 -16 10 -35 11 -34 0 -35 1 -35 40 0 37 2 39 33 42 27 3 34 -1
42 -23 12 -33 32 -23 27 13 l-4 27 -136 2 c-86 2 -137 -1 -137 -7 0 -6 7 -10
15 -10 19 0 19 -1 -9 -90 -13 -41 -26 -68 -29 -60 -38 107 -45 141 -32 147 30
11 14 21 -35 21 -27 0 -50 -4 -50 -8z"/>
<path d="M650 1000 c0 -5 7 -10 15 -10 12 0 15 -18 15 -100 0 -82 -3 -100 -15
-100 -8 0 -15 -4 -15 -10 0 -12 77 -13 84 -1 3 5 -3 11 -14 14 -18 5 -20 14
-20 81 0 42 4 76 8 76 4 0 16 -15 27 -32 10 -18 23 -37 27 -43 5 -5 24 -31 44
-57 19 -27 39 -48 44 -48 6 0 10 45 10 105 0 85 3 107 15 111 28 11 15 24 -25
24 -43 0 -49 -6 -24 -24 11 -9 14 -27 12 -80 l-3 -68 -59 86 c-54 79 -62 86
-93 86 -18 0 -33 -4 -33 -10z"/>
<path d="M968 993 c-34 -21 -48 -53 -48 -108 0 -55 36 -101 85 -111 43 -8 70
1 100 34 21 22 25 37 25 84 0 50 -4 60 -31 87 -35 36 -87 41 -131 14z m97 -23
c13 -15 18 -36 18 -80 0 -89 -45 -128 -93 -80 -16 16 -20 33 -20 80 0 47 4 64
20 80 25 25 52 25 75 0z"/>
<path d="M1160 1001 c0 -5 9 -11 20 -14 18 -5 20 -14 20 -97 0 -83 -2 -92 -20
-97 -36 -9 -21 -23 25 -23 25 0 45 5 45 10 0 6 -7 10 -15 10 -12 0 -15 17 -15
90 0 50 2 90 5 90 2 0 18 -45 35 -100 28 -92 45 -119 54 -87 10 36 50 154 57
167 5 9 9 -21 9 -72 0 -72 -3 -88 -15 -88 -8 0 -15 -4 -15 -10 0 -5 25 -10 55
-10 30 0 55 5 55 10 0 6 -7 10 -15 10 -18 0 -16 -7 -20 104 -3 80 -1 89 16 93
37 10 19 23 -28 21 l-46 -3 -25 -72 c-13 -40 -27 -73 -31 -73 -4 0 -18 33 -30
73 l-23 74 -49 1 c-27 0 -49 -3 -49 -7z"/>
<path d="M1496 968 c12 -76 26 -74 39 5 6 35 4 37 -20 37 -24 0 -25 -2 -19
-42z"/>
<path d="M1606 989 c-35 -28 -33 -61 5 -93 17 -14 36 -26 43 -26 7 0 21 -9 32
-21 14 -15 16 -24 7 -37 -16 -26 -66 -22 -78 6 -14 31 -37 29 -33 -5 6 -55
115 -57 143 -2 22 42 13 60 -48 95 -40 23 -52 35 -52 54 0 33 39 40 57 11 7
-12 18 -21 25 -21 21 0 25 21 7 41 -23 25 -74 25 -108 -2z"/>
<path d="M1780 1000 c0 -5 6 -10 14 -10 21 0 26 -23 26 -112 0 -71 -2 -80 -20
-85 -37 -10 -20 -23 30 -23 50 0 67 13 30 23 -18 5 -20 14 -20 95 0 82 2 91
23 105 21 15 20 16 -30 16 -29 1 -53 -3 -53 -9z"/>
<path d="M1900 1001 c0 -5 10 -11 21 -14 17 -5 20 -11 15 -29 -3 -13 -6 -56
-6 -95 0 -58 -3 -73 -15 -73 -8 0 -15 -4 -15 -10 0 -5 20 -10 45 -10 46 0 61
14 25 23 -18 5 -20 14 -20 81 0 42 4 76 8 76 4 0 34 -40 66 -90 32 -49 62 -90
67 -90 5 0 9 50 9 110 0 91 3 110 15 110 8 0 15 5 15 10 0 6 -18 10 -40 10
-22 0 -40 -4 -40 -10 0 -5 7 -10 15 -10 12 0 15 -16 15 -80 0 -44 -2 -80 -4
-80 -2 0 -29 41 -60 90 -51 80 -61 90 -87 90 -16 0 -29 -4 -29 -9z"/>
<path d="M2168 994 c20 -15 22 -25 22 -106 0 -81 -2 -90 -20 -95 -39 -10 -19
-23 38 -23 34 0 71 7 92 18 64 32 77 129 26 189 -22 25 -31 28 -102 30 -75 3
-78 3 -56 -13z m125 -19 c24 -18 37 -76 27 -121 -9 -39 -20 -50 -57 -60 -47
-13 -52 -2 -48 98 1 51 3 94 4 96 3 8 59 -1 74 -13z"/>
<path d="M2390 1000 c0 -5 7 -10 15 -10 12 0 15 -18 15 -100 0 -82 -3 -100
-15 -100 -8 0 -15 -5 -15 -10 0 -7 32 -10 88 -8 87 3 87 3 90 31 4 31 -13 37
-21 7 -4 -16 -14 -20 -51 -20 l-46 0 0 51 0 51 38 -4 c20 -1 37 2 37 7 0 6
-16 10 -35 10 -34 0 -35 1 -38 43 l-3 42 41 0 c33 0 43 -4 47 -20 8 -30 25
-24 21 8 -3 27 -4 27 -85 30 -53 2 -83 -1 -83 -8z"/>
<path d="M2590 1001 c0 -5 8 -12 18 -16 9 -3 29 -26 44 -51 l28 -45 -36 -49
c-20 -28 -40 -50 -45 -50 -5 0 -9 -4 -9 -10 0 -5 16 -10 35 -10 34 0 48 14 23
22 -8 3 -4 17 12 43 l23 38 24 -29 c24 -30 30 -54 13 -54 -5 0 -10 -4 -10 -10
0 -5 20 -10 45 -10 25 0 45 5 45 10 0 6 -6 10 -14 10 -14 0 -76 90 -76 110 0
17 54 89 68 90 6 0 12 5 12 10 0 6 -16 10 -35 10 -19 0 -35 -4 -35 -10 0 -5 5
-10 10 -10 11 0 3 -19 -22 -54 -14 -17 -15 -17 -32 10 -15 22 -16 31 -7 46 10
16 7 18 -34 18 -25 0 -45 -4 -45 -9z"/>
</g>
</svg>
